<svg xmlns="http://www.w3.org/2000/svg" viewBox="0 0 128 128"><rect width="128" height="128" rx="28" fill="#131e35"/><path d="M31 27h47a9 9 0 0 1 9 9v58a9 9 0 0 1-9 9H31a9 9 0 0 1-9-9V36a9 9 0 0 1 9-9Z" fill="#fff"/><path d="M38 48h32M38 63h22M38 78h18" stroke="#131e35" stroke-width="7" stroke-linecap="round"/><path d="m69 79 9 9 26-32" fill="none" stroke="#f6b100" stroke-width="11" stroke-linecap="round" stroke-linejoin="round"/><path d="M79 33h17v17" fill="none" stroke="#f6b100" stroke-width="7" stroke-linecap="round"/><path d="M76 52 96 33" stroke="#f6b100" stroke-width="7" stroke-linecap="round"/></svg>